<svg width="640" height="480" xmlns="http://www.w3.org/2000/svg" xmlns:svg="http://www.w3.org/2000/svg">
  <title>mountains</title>
  <g>
    <title>Layer 1</title>
    <path id="svg_2" fill="#ffffff" d="m619.284897,313.013325l-110.555519,-180.61327c-6.751482,-10.971834 -17.72264,-17.723732 -30.381669,-18.567719c-12.659029,-0.843987 -24.474122,4.219936 -32.913475,14.347783l-54.855792,66.674992l-115.61913,-171.32941c-7.595417,-10.971834 -20.254446,-17.723732 -32.06954,-16.879745c-12.659029,0 -25.318058,6.751898 -32.06954,17.723732l-193.261174,298.771484c-8.439353,12.659809 -12.659029,27.851579 -12.659029,43.887337l0,25.319617c0,43.887337 35.445281,79.334801 79.329914,79.334801l467.540132,0c43.884633,0 79.329914,-35.447464 79.329914,-79.334801l0,-36.291451c0,-16.035758 -4.219676,-30.383541 -11.815094,-43.043349zm-11.815094,78.490814c0,31.227528 -25.318058,55.703158 -55.699727,55.703158l-467.540132,0c-31.225604,0 -55.699727,-25.319617 -55.699727,-55.703158l0,-25.319617c0,-10.971834 3.375741,-21.943668 9.283288,-31.227528l192.417238,-298.771484c2.531806,-4.219936 7.595417,-6.751898 12.659029,-6.751898l0,0c5.063612,0 10.127223,2.531962 12.659029,6.751898l119.838806,177.237321l-90.301072,109.718342c-1.687871,2.531962 -4.219676,2.531962 -5.063612,2.531962c-1.687871,0.843987 -3.375741,0 -5.907547,-2.531962l-34.601345,-37.979426c-5.907547,-6.751898 -15.190835,-10.127847 -24.474122,-10.127847c-9.283288,0.843987 -17.72264,5.063923 -22.786252,12.659809l-33.75741,48.107273c-3.375741,5.063923 -2.531806,12.659809 2.531806,16.035758c5.063612,3.375949 12.659029,2.531962 16.03477,-2.531962l33.75741,-48.107273c1.687871,-2.531962 4.219676,-3.375949 5.907547,-3.375949c0.843935,0 3.375741,0 5.907547,2.531962l34.601345,37.979426c5.907547,6.751898 15.190835,10.127847 23.630187,10.127847s16.878705,-4.219936 22.786252,-10.971834l95.364684,-115.626252l0,0l64.983015,-78.490814c3.375741,-4.219936 7.595417,-5.907911 12.659029,-5.907911s9.283288,3.375949 11.815094,7.595885l110.555519,180.61327c5.063612,9.28386 8.439353,19.411707 8.439353,29.539553c0,0 0,36.291451 0,36.291451z"/>
  </g>
</svg>
